/* XPM */
static char *c001708016385[] = {
/* columns rows colors chars-per-pixel */
"32 32 91 1 ",
"  c black",
". c white",
"X c #6A6A6A",
"o c gray23",
"O c gray11",
"+ c #555555",
"@ c #8E8E8E",
"# c gray91",
"$ c #7C7C7C",
"% c #3F3F3F",
"& c gray18",
"* c #585858",
"= c gray78",
"- c gray63",
"; c #626262",
": c gray14",
"> c #6C6C6C",
", c gray28",
"< c #494949",
"1 c #B2B2B2",
"2 c #444444",
"3 c gray75",
"4 c #010101",
"5 c #888888",
"6 c gainsboro",
"7 c gray64",
"8 c #4E4E4E",
"9 c #656565",
"0 c gray36",
"q c gray22",
"w c #868686",
"e c #313131",
"r c #C1C1C1",
"t c #939393",
"y c #222222",
"u c #0B0B0B",
"i c gray73",
"p c gray50",
"a c gray38",
"s c #AFAFAF",
"d c gray21",
"f c gray8",
"g c gray80",
"h c gray56",
"j c #A9A9A9",
"k c #6D6D6D",
"l c #1E1E1E",
"z c #020202",
"x c gray54",
"c c #979797",
"v c #F9F9F9",
"b c gray66",
"n c #A0A0A0",
"m c #B7B7B7",
"M c #2A2A2A",
"N c gray59",
"B c #BBBBBB",
"V c gray12",
"C c #FDFDFD",
"Z c LightGray",
"A c #7E7E7E",
"S c #606060",
"D c gray48",
"F c #434343",
"G c #161616",
"H c #AEAEAE",
"J c #F3F3F3",
"K c #272727",
"L c gray2",
"P c #323232",
"I c #181818",
"U c #959595",
"Y c gray49",
"T c #2C2C2C",
"R c #131313",
"E c gray96",
"W c #D0D0D0",
"Q c gray13",
"! c #3A3A3A",
"~ c #A2A2A2",
"^ c #090909",
"/ c gray45",
"( c #1B1B1B",
") c gray70",
"_ c #E6E6E6",
"` c #EFEFEF",
"' c gray79",
"] c #ECECEC",
"[ c gray93",
"{ c #D8D8D8",
"} c gray99",
/* pixels */
"                                ",
" .............................. ",
" .............................. ",
" .............................. ",
" .............................. ",
" .............................. ",
" .............................. ",
" .............................. ",
" .............................. ",
" ....XoO+@...#$%&*=...-;:%>.... ",
" ...,     <..%     =.1     2... ",
" ..3  45   67  89  0.q  we  r.. ",
" ..t  y.u  ip  as  d.f  g2  -.. ",
" ..h  y.   jk  as  l.z  g2  x.. ",
" ..h  y.zzzc>  as  O.   g2  5.. ",
" ..h  y.....>  as  O.   g2  5.. ",
" ..h  y.vvv.>  as  O.   g2  5.. ",
" ..h  y.   b>  as  O.   g2  5.. ",
" ..n  y.u  m>  as  M.   g2  N.. ",
" ..B  VC4  ZA  SD  F.G  gF  H.. ",
" ..JK  L  P.6   I  U.Y  T  RE.. ",
" ...WQ   !Z..~^   /...;   ()... ",
" ....._1`.....v6'].....[W{}.... ",
" .............................. ",
" .............................. ",
" .............................. ",
" .............................. ",
" .............................. ",
" .............................. ",
" .............................. ",
" .............................. ",
"                                "
};
