/* XPM */
static char *c011708016385[] = {
/* columns rows colors chars-per-pixel */
"32 32 79 1 ",
"  c black",
". c white",
"X c #6A6A6A",
"o c gray23",
"O c gray11",
"+ c #555555",
"@ c #8E8E8E",
"# c gray91",
"$ c #7C7C7C",
"% c #3F3F3F",
"& c gray18",
"* c #585858",
"= c gray78",
"- c #BCBCBC",
"; c gray30",
": c #3E3E3E",
"> c gray28",
", c #494949",
"< c #FDFDFD",
"1 c #686868",
"2 c gray75",
"3 c #010101",
"4 c #888888",
"5 c gainsboro",
"6 c gray64",
"7 c #4E4E4E",
"8 c #656565",
"9 c gray36",
"0 c #808080",
"q c #939393",
"w c #222222",
"e c #0B0B0B",
"r c gray73",
"t c gray50",
"y c gray38",
"u c #AFAFAF",
"i c gray21",
"p c #767676",
"a c #202020",
"s c gray56",
"d c #A9A9A9",
"f c #6D6D6D",
"g c #1E1E1E",
"h c gray44",
"j c #020202",
"k c #979797",
"l c #6C6C6C",
"z c #F9F9F9",
"x c gray66",
"c c #A0A0A0",
"v c #B7B7B7",
"b c #2A2A2A",
"n c #BBBBBB",
"m c gray12",
"M c LightGray",
"N c #7E7E7E",
"B c #606060",
"V c gray48",
"C c #434343",
"Z c #F3F3F3",
"A c #272727",
"S c gray2",
"D c #323232",
"F c #181818",
"G c #959595",
"H c #A4A4A4",
"J c #D0D0D0",
"K c gray13",
"L c #3A3A3A",
"P c #A2A2A2",
"I c #090909",
"U c gray45",
"Y c gray62",
"T c #E6E6E6",
"R c #B2B2B2",
"E c #EFEFEF",
"W c gray79",
"Q c #ECECEC",
"! c gray95",
/* pixels */
"                                ",
" .............................. ",
" .............................. ",
" .............................. ",
" .............................. ",
" .............................. ",
" .............................. ",
" .............................. ",
" .............................. ",
" .............................. ",
" .....XoO+@...#$%&*=....-;:.... ",
" ....>     ,..%     =.<1   .... ",
" ...2  34   56  78  90     .... ",
" ...q  w.e  rt  yu  ipa    .... ",
" ...s  w.   df  yu  g..h   .... ",
" ...s  w.jjjkl  yu  O..d   .... ",
" ...s  w.....l  yu  O..d   .... ",
" ...s  w.zzz.l  yu  O..d   .... ",
" ...s  w.   xl  yu  O..d   .... ",
" ...c  w.e  vl  yu  b..d   .... ",
" ...n  m<3  MN  BV  C..d   .... ",
" ...ZA  S  D.5   F  G..H   .... ",
" ....JK   LM..PI   U...Y   .... ",
" ......TRE.....z5WQ.....!!!.... ",
" .............................. ",
" .............................. ",
" .............................. ",
" .............................. ",
" .............................. ",
" .............................. ",
" .............................. ",
"                                "
};
