/* XPM */
static char *c021708016385[] = {
/* columns rows colors chars-per-pixel */
"32 32 93 2 ",
"   c black",
".  c white",
"X  c #6A6A6A",
"o  c gray23",
"O  c gray11",
"+  c #555555",
"@  c #8E8E8E",
"#  c gray91",
"$  c #7C7C7C",
"%  c #3F3F3F",
"&  c gray18",
"*  c #585858",
"=  c gray78",
"-  c #898989",
";  c #434343",
":  c #222222",
">  c #414141",
",  c #A0A0A0",
"<  c gray28",
"1  c #494949",
"2  c #676767",
"3  c #929292",
"4  c gray75",
"5  c #010101",
"6  c #888888",
"7  c gainsboro",
"8  c gray64",
"9  c #4E4E4E",
"0  c #656565",
"q  c gray36",
"w  c #F9F9F9",
"e  c #060606",
"r  c gray14",
"t  c #C0C0C0",
"y  c gray12",
"u  c #939393",
"i  c #0B0B0B",
"p  c gray73",
"a  c gray50",
"s  c gray38",
"d  c #AFAFAF",
"f  c gray21",
"g  c #E6E6E6",
"h  c #F4F4F4",
"j  c gray56",
"k  c #A9A9A9",
"l  c #6D6D6D",
"z  c #1E1E1E",
"x  c gray86",
"c  c #2F2F2F",
"v  c #393939",
"b  c gray62",
"n  c gray15",
"m  c #020202",
"M  c #979797",
"N  c #6C6C6C",
"B  c #626262",
"V  c #A4A4A4",
"C  c #CDCDCD",
"Z  c gray16",
"A  c gray45",
"S  c gray66",
"D  c #848484",
"F  c gray99",
"G  c #B7B7B7",
"H  c #2A2A2A",
"J  c gray85",
"K  c gray65",
"L  c #BBBBBB",
"P  c #FDFDFD",
"I  c LightGray",
"U  c #7E7E7E",
"Y  c #606060",
"T  c gray48",
"R  c #515151",
"E  c #F3F3F3",
"W  c #272727",
"Q  c gray2",
"!  c #323232",
"~  c #181818",
"^  c #959595",
"/  c #DADADA",
"(  c #131313",
")  c #D0D0D0",
"_  c gray13",
"`  c #3A3A3A",
"'  c #A2A2A2",
"]  c #090909",
"[  c #B2B2B2",
"{  c #EFEFEF",
"}  c gray79",
"|  c #ECECEC",
" . c gray98",
/* pixels */
"                                                                ",
"  . . . . . . . . . . . . . . . . . . . . . . . . . . . . . .   ",
"  . . . . . . . . . . . . . . . . . . . . . . . . . . . . . .   ",
"  . . . . . . . . . . . . . . . . . . . . . . . . . . . . . .   ",
"  . . . . . . . . . . . . . . . . . . . . . . . . . . . . . .   ",
"  . . . . . . . . . . . . . . . . . . . . . . . . . . . . . .   ",
"  . . . . . . . . . . . . . . . . . . . . . . . . . . . . . .   ",
"  . . . . . . . . . . . . . . . . . . . . . . . . . . . . . .   ",
"  . . . . . . . . . . . . . . . . . . . . . . . . . . . . . .   ",
"  . . . . . . . . . . . . . . . . . . . . . . . . . . . . . .   ",
"  . . . . X o O + @ . . . # $ % & * = . . . - ; : > , . . . .   ",
"  . . . <           1 . . %           = . 2           3 . . .   ",
"  . . 4     5 6       7 8     9 0     q w e   r t     y . . .   ",
"  . . u     : . i     p a     s d     f g     % h       g . .   ",
"  . . j     : .       k l     s d     z x c c v b     n . . .   ",
"  . . j     : . m m m M N     s d     O . . . . v     B . . .   ",
"  . . j     : . . . . . N     s d     O . . . V       C . . .   ",
"  . . j     : . w w w . N     s d     O . . . Z     A . . . .   ",
"  . . j     : .       S N     s d     O . . D     n F . . . .   ",
"  . . ,     : . i     G N     s d     H . J       K . . . . .   ",
"  . . L     y P 5     I U     Y T     ; . R     c 7 7 7 . . .   ",
"  . . E W     Q     ! . 7       ~     ^ /             ( . . .   ",
"  . . . ) _       ` I . . ' ]       A . /             ( . . .   ",
"  . . . . . g [ { . . . . . w 7 } | . . .  . . . . . . .. . .   ",
"  . . . . . . . . . . . . . . . . . . . . . . . . . . . . . .   ",
"  . . . . . . . . . . . . . . . . . . . . . . . . . . . . . .   ",
"  . . . . . . . . . . . . . . . . . . . . . . . . . . . . . .   ",
"  . . . . . . . . . . . . . . . . . . . . . . . . . . . . . .   ",
"  . . . . . . . . . . . . . . . . . . . . . . . . . . . . . .   ",
"  . . . . . . . . . . . . . . . . . . . . . . . . . . . . . .   ",
"  . . . . . . . . . . . . . . . . . . . . . . . . . . . . . .   ",
"                                                                "
};
