/* XPM */
static char *c031708016385[] = {
/* columns rows colors chars-per-pixel */
"32 32 103 2 ",
"   c black",
".  c white",
"X  c #6A6A6A",
"o  c gray23",
"O  c gray11",
"+  c #555555",
"@  c #8E8E8E",
"#  c gray91",
"$  c #7C7C7C",
"%  c #3F3F3F",
"&  c gray18",
"*  c #585858",
"=  c gray78",
"-  c #DDDDDD",
";  c gray38",
":  c #282828",
">  c gray12",
",  c #3A3A3A",
"<  c #747474",
"1  c gray94",
"2  c gray28",
"3  c #494949",
"4  c gray75",
"5  c #010101",
"6  c #888888",
"7  c gainsboro",
"8  c gray64",
"9  c #4E4E4E",
"0  c #656565",
"q  c gray36",
"w  c #AFAFAF",
"e  c gray7",
"r  c #939393",
"t  c #222222",
"y  c #0B0B0B",
"u  c gray73",
"i  c gray50",
"p  c gray21",
"a  c #E7E7E7",
"s  c #DFDFDF",
"d  c #2C2C2C",
"f  c gray",
"g  c gray56",
"h  c #A9A9A9",
"j  c #6D6D6D",
"k  c #1E1E1E",
"l  c #B1B1B1",
"z  c #161616",
"x  c #020202",
"c  c #979797",
"v  c #6C6C6C",
"b  c gray15",
"n  c gray16",
"m  c gray53",
"M  c #232323",
"N  c #434343",
"B  c #F6F6F6",
"V  c #F9F9F9",
"C  c #FEFEFE",
"Z  c gray93",
"A  c #AEAEAE",
"S  c #070707",
"D  c gray66",
"F  c gray89",
"G  c #E4E4E4",
"H  c gray67",
"J  c #A0A0A0",
"K  c #B7B7B7",
"L  c #2A2A2A",
"P  c gray65",
"I  c #BBBBBB",
"U  c #FDFDFD",
"Y  c LightGray",
"T  c #7E7E7E",
"R  c #606060",
"E  c gray48",
"W  c gray1",
"Q  c gray83",
"!  c gray17",
"~  c #F3F3F3",
"^  c #272727",
"/  c gray2",
"(  c #323232",
")  c #181818",
"_  c #959595",
"`  c gray27",
"'  c #343434",
"]  c #151515",
"[  c #EEEEEE",
"{  c #D0D0D0",
"}  c gray13",
"|  c #A2A2A2",
" . c #090909",
".. c gray45",
"X. c gray92",
"o. c gray14",
"O. c #CDCDCD",
"+. c #E6E6E6",
"@. c #B2B2B2",
"#. c #EFEFEF",
"$. c gray79",
"%. c #ECECEC",
"&. c gray87",
/* pixels */
"                                                                ",
"  . . . . . . . . . . . . . . . . . . . . . . . . . . . . . .   ",
"  . . . . . . . . . . . . . . . . . . . . . . . . . . . . . .   ",
"  . . . . . . . . . . . . . . . . . . . . . . . . . . . . . .   ",
"  . . . . . . . . . . . . . . . . . . . . . . . . . . . . . .   ",
"  . . . . . . . . . . . . . . . . . . . . . . . . . . . . . .   ",
"  . . . . . . . . . . . . . . . . . . . . . . . . . . . . . .   ",
"  . . . . . . . . . . . . . . . . . . . . . . . . . . . . . .   ",
"  . . . . . . . . . . . . . . . . . . . . . . . . . . . . . .   ",
"  . . . . . . . . . . . . . . . . . . . . . . . . . . . . . .   ",
"  . . . . X o O + @ . . . # $ % & * = . . - ; : > , < 1 . . .   ",
"  . . . 2           3 . . %           = . 3           3 . . .   ",
"  . . 4     5 6       7 8     9 0     q . 5     w e     - . .   ",
"  . . r     t . y     u i     ; w     p a       s d     f . .   ",
"  . . g     t .       h j     ; w     k . l l l . z     1 . .   ",
"  . . g     t . x x x c v     ; w     O . . . b n     m . . .   ",
"  . . g     t . . . . . v     ; w     O . . . M       N B . .   ",
"  . . g     t . V V V . v     ; w     O . C C Z A S     f . .   ",
"  . . g     t .       D v     ; w     O F       G :     H . .   ",
"  . . J     t . y     K v     ; w     L 1       G d     P . .   ",
"  . . I     > U 5     Y T     R E     N . W     Q !     u . .   ",
"  . . ~ ^     /     ( . 7       )     _ . `     '     ] [ . .   ",
"  . . . { }       , Y . . |  .      ... . X.o.      M O.. . .   ",
"  . . . . . +.@.#.. . . . . V 7 $.%.. . . . . &.$.1 . . . . .   ",
"  . . . . . . . . . . . . . . . . . . . . . . . . . . . . . .   ",
"  . . . . . . . . . . . . . . . . . . . . . . . . . . . . . .   ",
"  . . . . . . . . . . . . . . . . . . . . . . . . . . . . . .   ",
"  . . . . . . . . . . . . . . . . . . . . . . . . . . . . . .   ",
"  . . . . . . . . . . . . . . . . . . . . . . . . . . . . . .   ",
"  . . . . . . . . . . . . . . . . . . . . . . . . . . . . . .   ",
"  . . . . . . . . . . . . . . . . . . . . . . . . . . . . . .   ",
"                                                                "
};
