/* XPM */
static char *c041708184036[] = {
/* columns rows colors chars-per-pixel */
"32 32 90 1 ",
"  c black",
". c white",
"X c #6A6A6A",
"o c gray23",
"O c gray11",
"+ c #555555",
"@ c #8E8E8E",
"# c #E7E7E7",
"$ c gray49",
"% c #3F3F3F",
"& c gray18",
"* c #585858",
"= c gray78",
"- c gray29",
"; c gray27",
": c gray25",
"> c #3E3E3E",
", c #7E7E7E",
"< c gray28",
"1 c #494949",
"2 c #E1E1E1",
"3 c gray46",
"4 c #C0C0C0",
"5 c #010101",
"6 c #888888",
"7 c #DDDDDD",
"8 c gray64",
"9 c gray31",
"0 c #656565",
"q c #5D5D5D",
"w c gray53",
"e c #939393",
"r c #222222",
"t c #0B0B0B",
"y c gray73",
"u c gray50",
"i c gray38",
"p c #AFAFAF",
"a c #373737",
"s c #313131",
"d c gray56",
"f c #A9A9A9",
"g c #6D6D6D",
"h c gray12",
"j c #020202",
"k c #979797",
"l c #6C6C6C",
"z c #1D1D1D",
"x c #868686",
"c c gray1",
"v c gray21",
"b c #7B7B7B",
"n c #F9F9F9",
"m c #DADADA",
"M c #CBCBCB",
"N c #0E0E0E",
"B c gray66",
"V c #8B8B8B",
"C c #393939",
"Z c #A0A0A0",
"A c #B7B7B7",
"S c gray17",
"D c gray63",
"F c #BBBBBB",
"G c #FDFDFD",
"H c LightGray",
"J c #606060",
"K c gray48",
"L c #434343",
"P c #F3F3F3",
"I c #272727",
"U c #060606",
"Y c gray20",
"T c gainsboro",
"R c gray9",
"E c gray59",
"W c #D0D0D0",
"Q c gray13",
"! c #3A3A3A",
"~ c gray83",
"^ c #A2A2A2",
"/ c #090909",
"( c gray45",
") c #E6E6E6",
"_ c #B2B2B2",
"` c #EFEFEF",
"' c gray79",
"] c gray93",
"[ c gray95",
"{ c #FEFEFE",
/* pixels */
"                                ",
" .............................. ",
" .............................. ",
" .............................. ",
" .............................. ",
" .............................. ",
" .............................. ",
" .............................. ",
" .............................. ",
" ....XoO+@...#$%&*=....-;:>,... ",
" ...<     1..%     =..2    3... ",
" ..4  56   78  90  q..w    3... ",
" ..e  r.t  yu  ip  a..s    3... ",
" ..d  r.   fg  ip  h.7     3... ",
" ..d  r.jjjkl  ip  z.x c   3... ",
" ..d  r.....l  ip  z.v b   3... ",
" ..d  r.nnn.l  ip  zm  MN  3... ",
" ..d  r.   Bl  ip  zV  bz  CM.. ",
" ..Z  r.t  Al  ip  Sx       D.. ",
" ..F  hG5  H$  JK  L3NNNj  ND.. ",
" ..PI  U  Y.T   R  E....r  3... ",
" ...WQ   !~..^/   (.....r  3... ",
" .....)_`.....nT']......[[[{... ",
" .............................. ",
" .............................. ",
" .............................. ",
" .............................. ",
" .............................. ",
" .............................. ",
" .............................. ",
" .............................. ",
"                                "
};
