/* XPM */
static char *c051708184036[] = {
/* columns rows colors chars-per-pixel */
"32 32 90 1 ",
"  c black",
". c white",
"X c #6A6A6A",
"o c gray23",
"O c gray11",
"+ c #555555",
"@ c #8E8E8E",
"# c #E7E7E7",
"$ c gray49",
"% c #3F3F3F",
"& c gray18",
"* c #585858",
"= c gray78",
"- c #3E3E3E",
"; c gray28",
": c #494949",
"> c #C0C0C0",
", c #010101",
"< c #888888",
"1 c #DDDDDD",
"2 c gray64",
"3 c gray31",
"4 c #656565",
"5 c #5D5D5D",
"6 c #939393",
"7 c #222222",
"8 c #0B0B0B",
"9 c gray73",
"0 c gray50",
"q c gray38",
"w c #AFAFAF",
"e c #373737",
"r c #F8F8F8",
"t c gray72",
"y c #C5C5C5",
"u c gray56",
"i c #A9A9A9",
"p c #6D6D6D",
"a c gray12",
"s c #151515",
"d c #323232",
"f c #020202",
"g c #979797",
"h c #6C6C6C",
"j c #1D1D1D",
"k c gray99",
"l c gray95",
"z c #1E1E1E",
"x c LightGray",
"c c gray27",
"v c #F9F9F9",
"b c #535353",
"n c gray48",
"m c gray66",
"M c gray94",
"N c gray85",
"B c #A0A0A0",
"V c #B7B7B7",
"C c gray17",
"Z c #FDFDFD",
"A c #BBBBBB",
"S c #606060",
"D c #434343",
"F c gray8",
"G c #CECECE",
"H c #838383",
"J c #F3F3F3",
"K c #272727",
"L c #060606",
"P c gray20",
"I c gainsboro",
"U c gray9",
"Y c gray59",
"T c #5F5F5F",
"R c #202020",
"E c gray82",
"W c #D0D0D0",
"Q c gray13",
"! c #3A3A3A",
"~ c gray83",
"^ c #A2A2A2",
"/ c #090909",
"( c gray45",
") c #131313",
"_ c gray67",
"` c #E6E6E6",
"' c #B2B2B2",
"] c #EFEFEF",
"[ c gray79",
"{ c gray93",
/* pixels */
"                                ",
" .............................. ",
" .............................. ",
" .............................. ",
" .............................. ",
" .............................. ",
" .............................. ",
" .............................. ",
" .............................. ",
" ....XoO+@...#$%&*=..%------... ",
" ...;     :..%     =.       ... ",
" ..>  ,<   12  34  5.   @@@@... ",
" ..6  7.8  90  qw  e.   rty.... ",
" ..u  7.   ip  qw  a.   s  d... ",
" ..u  7.fffgh  qw  jk   *   w.. ",
" ..u  7.....h  qw  jlOjzxc  u.. ",
" ..u  7.vvv.h  qw  j.....b  n.. ",
" ..u  7.   mh  qw  jMjjjNb  n.. ",
" ..B  7.8  Vh  qw  CZ   Nb  n.. ",
" ..A  aZ,  x$  Sn  D.F  Gb  H.. ",
" ..JK  L  P.I   U  Y.T  R   E.. ",
" ...WQ   !~..^/   (...5   )_... ",
" .....`'].....vI[{.....k[I..... ",
" .............................. ",
" .............................. ",
" .............................. ",
" .............................. ",
" .............................. ",
" .............................. ",
" .............................. ",
" .............................. ",
"                                "
};
