/* XPM */
static char *c061708184036[] = {
/* columns rows colors chars-per-pixel */
"32 32 103 2 ",
"   c black",
".  c white",
"X  c #6A6A6A",
"o  c gray23",
"O  c gray11",
"+  c #555555",
"@  c #8E8E8E",
"#  c #E7E7E7",
"$  c gray49",
"%  c #3F3F3F",
"&  c gray18",
"*  c #585858",
"=  c gray78",
"-  c gray70",
";  c #515151",
":  c #282828",
">  c #6D6D6D",
",  c #DFDFDF",
"<  c gray28",
"1  c #494949",
"2  c gray62",
"3  c gray12",
"4  c #D7D7D7",
"5  c #C0C0C0",
"6  c #010101",
"7  c #888888",
"8  c #DDDDDD",
"9  c gray64",
"0  c gray31",
"q  c #656565",
"w  c #5D5D5D",
"e  c gray26",
"r  c #A0A0A0",
"t  c gray35",
"y  c gray54",
"u  c #939393",
"i  c #222222",
"p  c #0B0B0B",
"a  c gray73",
"s  c gray50",
"d  c gray38",
"f  c #AFAFAF",
"g  c #373737",
"h  c #0C0C0C",
"j  c #CDCDCD",
"k  c gray14",
"l  c #202020",
"z  c gray36",
"x  c gray56",
"c  c #A9A9A9",
"v  c #FEFEFE",
"b  c #ACACAC",
"n  c #AAAAAA",
"m  c #B4B4B4",
"M  c gray99",
"N  c #020202",
"B  c #979797",
"V  c #6C6C6C",
"C  c #1D1D1D",
"Z  c #2C2C2C",
"A  c gray97",
"S  c gray33",
"D  c #070707",
"F  c #F9F9F9",
"G  c #797979",
"H  c gray66",
"J  c #5F5F5F",
"K  c gray43",
"L  c #B7B7B7",
"P  c gray17",
"I  c gray1",
"U  c #BBBBBB",
"Y  c #FDFDFD",
"T  c LightGray",
"R  c #606060",
"E  c gray48",
"W  c #434343",
"Q  c #252525",
"!  c #7C7C7C",
"~  c #F3F3F3",
"^  c #272727",
"/  c #060606",
"(  c gray20",
")  c gainsboro",
"_  c gray9",
"`  c gray59",
"'  c #818181",
"]  c gray79",
"[  c #D0D0D0",
"{  c gray13",
"}  c #3A3A3A",
"|  c gray83",
" . c #A2A2A2",
".. c #090909",
"X. c gray45",
"o. c gray40",
"O. c #9B9B9B",
"+. c #E6E6E6",
"@. c #B2B2B2",
"#. c #EFEFEF",
"$. c gray93",
"%. c gray84",
"&. c gray87",
/* pixels */
"                                                                ",
"  . . . . . . . . . . . . . . . . . . . . . . . . . . . . . .   ",
"  . . . . . . . . . . . . . . . . . . . . . . . . . . . . . .   ",
"  . . . . . . . . . . . . . . . . . . . . . . . . . . . . . .   ",
"  . . . . . . . . . . . . . . . . . . . . . . . . . . . . . .   ",
"  . . . . . . . . . . . . . . . . . . . . . . . . . . . . . .   ",
"  . . . . . . . . . . . . . . . . . . . . . . . . . . . . . .   ",
"  . . . . . . . . . . . . . . . . . . . . . . . . . . . . . .   ",
"  . . . . . . . . . . . . . . . . . . . . . . . . . . . . . .   ",
"  . . . . X o O + @ . . . # $ % & * = . . . - ; : o > , . . .   ",
"  . . . <           1 . . %           = . 2           3 4 . .   ",
"  . . 5     6 7       8 9     0 q     w . e     r t     y . .   ",
"  . . u     i . p     a s     d f     g . h     j 1 k l z . .   ",
"  . . x     i .       c >     d f     3 v       b n m M . . .   ",
"  . . x     i . N N N B V     d f     C v       3     Z A . .   ",
"  . . x     i . . . . . V     d f     C v       S D     B . .   ",
"  . . x     i . F F F . V     d f     C v       = *     G . .   ",
"  . . x     i .       H V     d f     C v       j J     K . .   ",
"  . . r     i . p     L V     d f     P . I     j J     K . .   ",
"  . . U     3 Y 6     T $     R E     W . Q     U w     ! . .   ",
"  . . ~ ^     /     ( . )       _     ` . '     Z       ] . .   ",
"  . . . [ {       } | . .  ...      X.. . . o.      h O.. . .   ",
"  . . . . . +.@.#.. . . . . F ) ] $.. . . . . Y %.&.. . . . .   ",
"  . . . . . . . . . . . . . . . . . . . . . . . . . . . . . .   ",
"  . . . . . . . . . . . . . . . . . . . . . . . . . . . . . .   ",
"  . . . . . . . . . . . . . . . . . . . . . . . . . . . . . .   ",
"  . . . . . . . . . . . . . . . . . . . . . . . . . . . . . .   ",
"  . . . . . . . . . . . . . . . . . . . . . . . . . . . . . .   ",
"  . . . . . . . . . . . . . . . . . . . . . . . . . . . . . .   ",
"  . . . . . . . . . . . . . . . . . . . . . . . . . . . . . .   ",
"  . . . . . . . . . . . . . . . . . . . . . . . . . . . . . .   ",
"                                                                "
};
