/* XPM */
static char *c071708184036[] = {
/* columns rows colors chars-per-pixel */
"32 32 94 2 ",
"   c black",
".  c white",
"X  c #6A6A6A",
"o  c gray23",
"O  c gray11",
"+  c #555555",
"@  c #8E8E8E",
"#  c #E7E7E7",
"$  c gray49",
"%  c #3F3F3F",
"&  c gray18",
"*  c #585858",
"=  c gray78",
"-  c #7C7C7C",
";  c #3E3E3E",
":  c #5F5F5F",
">  c gray28",
",  c #494949",
"<  c #727272",
"1  c #5A5A5A",
"2  c #C0C0C0",
"3  c #010101",
"4  c #888888",
"5  c #DDDDDD",
"6  c gray64",
"7  c gray31",
"8  c #656565",
"9  c #5D5D5D",
"0  c #4E4E4E",
"q  c #4B4B4B",
"w  c #282828",
"e  c #646464",
"r  c #939393",
"t  c #222222",
"y  c #0B0B0B",
"u  c gray73",
"i  c gray50",
"p  c gray38",
"a  c #AFAFAF",
"s  c #373737",
"d  c #4C4C4C",
"f  c #767676",
"g  c gray56",
"h  c #A9A9A9",
"j  c #6D6D6D",
"k  c gray12",
"l  c #A7A7A7",
"z  c #020202",
"x  c #979797",
"c  c #6C6C6C",
"v  c #1D1D1D",
"b  c #FBFBFB",
"n  c #DADADA",
"m  c #0C0C0C",
"M  c #F9F9F9",
"N  c gray47",
"B  c gray24",
"V  c gray66",
"C  c gray21",
"Z  c #A0A0A0",
"A  c #B7B7B7",
"S  c gray17",
"D  c gray65",
"F  c #BBBBBB",
"G  c #FDFDFD",
"H  c LightGray",
"J  c #606060",
"K  c gray48",
"L  c #434343",
"P  c #E6E6E6",
"I  c gray88",
"U  c #F3F3F3",
"Y  c #272727",
"T  c #060606",
"R  c gray20",
"E  c gainsboro",
"W  c gray9",
"Q  c gray59",
"!  c #A4A4A4",
"~  c gray1",
"^  c #D0D0D0",
"/  c gray13",
"(  c #3A3A3A",
")  c gray83",
"_  c #A2A2A2",
"`  c #090909",
"'  c gray45",
"]  c #626262",
"[  c #393939",
"{  c #B2B2B2",
"}  c #EFEFEF",
"|  c gray79",
" . c gray93",
".. c gray95",
/* pixels */
"                                                                ",
"  . . . . . . . . . . . . . . . . . . . . . . . . . . . . . .   ",
"  . . . . . . . . . . . . . . . . . . . . . . . . . . . . . .   ",
"  . . . . . . . . . . . . . . . . . . . . . . . . . . . . . .   ",
"  . . . . . . . . . . . . . . . . . . . . . . . . . . . . . .   ",
"  . . . . . . . . . . . . . . . . . . . . . . . . . . . . . .   ",
"  . . . . . . . . . . . . . . . . . . . . . . . . . . . . . .   ",
"  . . . . . . . . . . . . . . . . . . . . . . . . . . . . . .   ",
"  . . . . . . . . . . . . . . . . . . . . . . . . . . . . . .   ",
"  . . . . . X o O + @ . . . # $ % & * = . - ; ; ; ; ; : . . .   ",
"  . . . . >           , . . %           = <           1 . . .   ",
"  . . . 2     3 4       5 6     7 8     9 4 0 q w     e . . .   ",
"  . . . r     t . y     u i     p a     s . . . d     f . . .   ",
"  . . . g     t .       h j     p a     k . . . y     l . . .   ",
"  . . . g     t . z z z x c     p a     v . . b       n . . .   ",
"  . . . g     t . . . . . c     p a     v . . u     m . . . .   ",
"  . . . g     t . M M M . c     p a     v . . N     B . . . .   ",
"  . . . g     t .       V c     p a     v . . C     j . . . .   ",
"  . . . Z     t . y     A c     p a     S . .       D . . . .   ",
"  . . . F     k G 3     H $     J K     L . P       I . . . .   ",
"  . . . U Y     T     R . E       W     Q . !     ~ . . . . .   ",
"  . . . . ^ /       ( ) . . _ `       ' . . ]     [ . . . . .   ",
"  . . . . . . P { } . . . . . M E |  .. . . ......... . . . .   ",
"  . . . . . . . . . . . . . . . . . . . . . . . . . . . . . .   ",
"  . . . . . . . . . . . . . . . . . . . . . . . . . . . . . .   ",
"  . . . . . . . . . . . . . . . . . . . . . . . . . . . . . .   ",
"  . . . . . . . . . . . . . . . . . . . . . . . . . . . . . .   ",
"  . . . . . . . . . . . . . . . . . . . . . . . . . . . . . .   ",
"  . . . . . . . . . . . . . . . . . . . . . . . . . . . . . .   ",
"  . . . . . . . . . . . . . . . . . . . . . . . . . . . . . .   ",
"  . . . . . . . . . . . . . . . . . . . . . . . . . . . . . .   ",
"                                                                "
};
