/* XPM */
static char *c081708184036[] = {
/* columns rows colors chars-per-pixel */
"32 32 100 2 ",
"   c black",
".  c white",
"X  c #6A6A6A",
"o  c gray23",
"O  c gray11",
"+  c #555555",
"@  c #8E8E8E",
"#  c #E7E7E7",
"$  c gray49",
"%  c #3F3F3F",
"&  c gray18",
"*  c #585858",
"=  c gray78",
"-  c #A5A5A5",
";  c #434343",
":  c #222222",
">  c #353535",
",  c #646464",
"<  c gray88",
"1  c gray28",
"2  c #494949",
"3  c #939393",
"4  c #282828",
"5  c #C0C0C0",
"6  c #010101",
"7  c #888888",
"8  c #DDDDDD",
"9  c gray64",
"0  c gray31",
"q  c #656565",
"w  c #5D5D5D",
"e  c #1D1D1D",
"r  c #C1C1C1",
"t  c #0B0B0B",
"y  c gray73",
"u  c gray50",
"i  c gray38",
"p  c #AFAFAF",
"a  c #373737",
"s  c gray8",
"d  c gray85",
"f  c #B2B2B2",
"g  c gray56",
"h  c #A9A9A9",
"j  c #6D6D6D",
"k  c gray12",
"l  c gray76",
"z  c #232323",
"x  c gray84",
"c  c #020202",
"v  c #979797",
"b  c #6C6C6C",
"n  c #CBCBCB",
"m  c gray3",
"M  c gray45",
"N  c gray44",
"B  c #EAEAEA",
"V  c #F9F9F9",
"C  c #202020",
"Z  c #797979",
"A  c #1E1E1E",
"S  c gray60",
"D  c gray66",
"F  c gray2",
"G  c gray32",
"H  c gray58",
"J  c #A0A0A0",
"K  c #B7B7B7",
"L  c gray17",
"P  c #F8F8F8",
"I  c #BBBBBB",
"U  c #FDFDFD",
"Y  c LightGray",
"T  c #606060",
"R  c gray48",
"E  c #C8C8C8",
"W  c gray27",
"Q  c #F3F3F3",
"!  c #272727",
"~  c #060606",
"^  c gray20",
"/  c gainsboro",
"(  c gray9",
")  c gray59",
"_  c gray24",
"`  c #2C2C2C",
"'  c #D0D0D0",
"]  c gray13",
"[  c #3A3A3A",
"{  c gray83",
"}  c #A2A2A2",
"|  c #090909",
" . c gray61",
".. c #E6E6E6",
"X. c #EFEFEF",
"o. c gray79",
"O. c gray93",
"+. c gray99",
"@. c gray80",
"#. c gray91",
/* pixels */
"                                                                ",
"  . . . . . . . . . . . . . . . . . . . . . . . . . . . . . .   ",
"  . . . . . . . . . . . . . . . . . . . . . . . . . . . . . .   ",
"  . . . . . . . . . . . . . . . . . . . . . . . . . . . . . .   ",
"  . . . . . . . . . . . . . . . . . . . . . . . . . . . . . .   ",
"  . . . . . . . . . . . . . . . . . . . . . . . . . . . . . .   ",
"  . . . . . . . . . . . . . . . . . . . . . . . . . . . . . .   ",
"  . . . . . . . . . . . . . . . . . . . . . . . . . . . . . .   ",
"  . . . . . . . . . . . . . . . . . . . . . . . . . . . . . .   ",
"  . . . . X o O + @ . . . # $ % & * = . . . - ; : > , < . . .   ",
"  . . . 1           2 . . %           = . 3           4 . . .   ",
"  . . 5     6 7       8 9     0 q     w . &     9 e     r . .   ",
"  . . 3     : . t     y u     i p     a . s     d a     f . .   ",
"  . . g     : .       h j     i p     k . 2     l z     x . .   ",
"  . . g     : . c c c v b     i p     e . n     m     M . . .   ",
"  . . g     : . . . . . b     i p     e . N           a B . .   ",
"  . . g     : . V V V . b     i p     e . C     Z A     S . .   ",
"  . . g     : .       D b     i p     e . F     d G     H . .   ",
"  . . J     : . t     K b     i p     L P       d G     H . .   ",
"  . . I     k U 6     Y $     T R     ; . t     E W     H . .   ",
"  . . Q !     ~     ^ . /       (     ) . _     `       r . .   ",
"  . . . ' ]       [ { . . } |       M . . Q [       (  .. . .   ",
"  . . . . . ..f X.. . . . . V / o.O.. . . . . +.@.#.. . . . .   ",
"  . . . . . . . . . . . . . . . . . . . . . . . . . . . . . .   ",
"  . . . . . . . . . . . . . . . . . . . . . . . . . . . . . .   ",
"  . . . . . . . . . . . . . . . . . . . . . . . . . . . . . .   ",
"  . . . . . . . . . . . . . . . . . . . . . . . . . . . . . .   ",
"  . . . . . . . . . . . . . . . . . . . . . . . . . . . . . .   ",
"  . . . . . . . . . . . . . . . . . . . . . . . . . . . . . .   ",
"  . . . . . . . . . . . . . . . . . . . . . . . . . . . . . .   ",
"  . . . . . . . . . . . . . . . . . . . . . . . . . . . . . .   ",
"                                                                "
};
