/* XPM */
static char *_934987054864811b0447549572ba5b80CPfX8DXPLU2AvJY[] = {
/* columns rows colors chars-per-pixel */
"32 32 75 1 ",
"  c black",
". c white",
"X c #F8F8F8",
"o c #B6B6B6",
"O c #3C3C3C",
"+ c gray55",
"@ c #AEAEAE",
"# c #C5C5C5",
"$ c #010101",
"% c gray96",
"& c #0B0B0B",
"* c gray10",
"= c #C3C3C3",
"- c #F3F3F3",
"; c gray8",
": c #F6F6F6",
"> c #191919",
", c gray25",
"< c gray76",
"1 c gray97",
"2 c #E4E4E4",
"3 c #494949",
"4 c gray1",
"5 c LightGray",
"6 c gray73",
"7 c gray11",
"8 c gray95",
"9 c gray28",
"0 c gray87",
"q c #464646",
"w c #D0D0D0",
"e c #939393",
"r c #909090",
"t c #CBCBCB",
"y c #414141",
"u c #070707",
"i c #7C7C7C",
"p c #676767",
"a c #535353",
"s c #DADADA",
"d c gray99",
"f c #5A5A5A",
"g c #040404",
"h c #B7B7B7",
"j c gray47",
"k c #060606",
"l c gray52",
"z c #0C0C0C",
"x c #434343",
"c c gray67",
"v c gray42",
"b c #353535",
"n c #D7D7D7",
"m c gray50",
"M c #898989",
"N c gray32",
"B c gray20",
"V c gray",
"C c #929292",
"Z c gray77",
"A c #5F5F5F",
"S c gray12",
"D c #FEFEFE",
"F c #5B5B5B",
"G c #4E4E4E",
"H c #CECECE",
"J c #868686",
"K c #161616",
"L c gray22",
"P c #8E8E8E",
"I c #808080",
"U c #4B4B4B",
"Y c #FBFBFB",
"T c gray98",
"R c #EAEAEA",
/* pixels */
"                                ",
" .............................. ",
" .............................. ",
" .............................. ",
" ..........Xo.................. ",
" ..........O+@#................ ",
" ..........$.%&................ ",
" .........  **  =.............. ",
" .......... .- ................ ",
" .......... .-;................ ",
" .......... .:>................ ",
" .......... .., <.............. ",
" ..........1...2............... ",
" ...............344444......... ",
" .............................. ",
" .............................. ",
" .............................. ",
" .........................56... ",
" .............78......#..o9+... ",
" ...........8.0.......qw.er.... ",
" ...tyu$i.pa s drfg$hjk**  ;... ",
" ...t*.. .pl..zdrx.cv.bn.mM.... ",
" ...tN..B0pV..zdrC.ZA.yn.mC.... ",
" ...tS.. DpV..zdre.ZF.GH.JC.... ",
" ...tK4LP.pV.. dre.Zf.I mPC.... ",
" ...tUYD......T........R....... ",
" ...tf......................... ",
" .............................. ",
" .............................. ",
" .............................. ",
" .............................. ",
"                                "
};
