/* XPM */
static char *_bdf6f7621124e359b6fcfa0e0577d312JNaUMbLOjET3FhE[] = {
/* columns rows colors chars-per-pixel */
"32 32 119 2 ",
"   c #000002",
".  c #1A1A1B",
"X  c #1E1F21",
"o  c #1E2024",
"O  c #212224",
"+  c #252628",
"@  c #2A2B2E",
"#  c #2F3031",
"$  c #333333",
"%  c #373739",
"&  c #37383A",
"*  c #3C3C3C",
"=  c #444444",
"-  c #6F6F6D",
";  c #726F6C",
":  c #757472",
">  c #7A7977",
",  c #77787A",
"<  c #787879",
"1  c #7F7F80",
"2  c #828282",
"3  c #8F8F90",
"4  c #A5A39E",
"5  c #ABA49A",
"6  c #AFA99E",
"7  c #B1AB9F",
"8  c #A7A5A0",
"9  c #AAA9A8",
"0  c #BAB4A4",
"q  c #B7B2AB",
"w  c #B9B4AD",
"e  c #B6B5B3",
"r  c #BDB9B2",
"t  c #BEBEBC",
"y  c #C4BDAD",
"u  c #C4BDB1",
"i  c #C7C0B1",
"p  c #CBC2B5",
"a  c #C4C2BE",
"s  c #CCC5B9",
"d  c #CFC8BC",
"f  c #D2C4B3",
"g  c #D2C9B7",
"h  c #D3CBBB",
"j  c #C4C3C1",
"k  c #C9C7C2",
"l  c #CCC9C4",
"z  c #CBCAC9",
"x  c #D4CFC3",
"c  c #D6D1C4",
"v  c #D6D3CD",
"b  c #DBD5CC",
"n  c #DED9CE",
"m  c #D1D7D0",
"M  c #DAD7D3",
"N  c #DDDAD3",
"B  c #E0D9CF",
"V  c #E3DFD3",
"C  c #DDE2DD",
"Z  c #E1E1DB",
"A  c #E6E2DD",
"S  c #E4E2DF",
"D  c #E9E4DB",
"F  c #EAE7E3",
"G  c #EEECE3",
"H  c #ECEBE7",
"J  c #EFECE7",
"K  c #EBEBE8",
"L  c #EDEDE9",
"P  c #EDEDEA",
"I  c #EFEDEA",
"U  c #EFEDEB",
"Y  c #F0EDE7",
"T  c #F1EFED",
"R  c #F1F0EA",
"E  c #F1F0ED",
"W  c #F3F1EC",
"Q  c #F3F1ED",
"!  c #F1F0EE",
"~  c #F2F0EE",
"^  c #F5F4EF",
"/  c #F3F1F1",
"(  c #F4F2F0",
")  c #F5F4F1",
"_  c #F4F4F2",
"`  c #F5F5F3",
"'  c #F6F6F5",
"]  c #F7F5F6",
"[  c #F9F7F4",
"{  c #F8F6F5",
"}  c #F8F7F5",
"|  c #F8F7F6",
" . c #F8F8F5",
".. c #F8F8F6",
"X. c #F9F8F7",
"o. c #FAF9F7",
"O. c #FBFAF7",
"+. c #FAFAF8",
"@. c #FAFAF9",
"#. c #FBFCFB",
"$. c #FDFCFA",
"%. c #FCFDFB",
"&. c #FDFCFC",
"*. c #FDFDFC",
"=. c #FDFCFD",
"-. c #FCFDFD",
";. c #FDFDFD",
":. c #FEFDFC",
">. c #FEFFFD",
",. c #FDFDFE",
"<. c #FDFEFE",
"1. c #FDFFFE",
"2. c #FEFEFE",
"3. c #FEFFFE",
"4. c #FFFFFE",
"5. c #FEFEFF",
"6. c #FEFFFF",
"7. c white",
"8. c white",
/* pixels */
"7.7.7.7.7.7.7.7.7.7.7.7.7.7.7.7.7.7.7.7.7.7.7.7.7.7.7.7.7.7.7.7.",
"7.7.7.7.7.7.7.7.7.7.7.7.7.7.7.7.7.7.7.7.7.7.7.7.7.7.7.7.7.7.7.7.",
"7.7.7.7.7.7.7.7.7.7.7.7.7.7.7.7.7.7.7.7.7.7.7.7.7.7.7.7.7.7.7.7.",
"7.7.7.7.7.7.7.7.7.7.7.7.7.7.7.7.7.7.7.7.7.7.7.7.7.7.7.7.7.7.7.7.",
"7.7.7.7.7.' v x x x x x x x x x x x x x x N 7.7.7.7.7.7.7.7.7.7.",
"7.7.7.7.7.H y u p p p p p p p p p p p p u p X.7.7.7.7.7.7.7.7.7.",
"7.7.7.7.7.K y v a 4 4 8 8 8 8 8 4 4 4 k x p X.7.7.7.7.7.7.7.7.7.",
"7.7.7.7.7.K y M ,   @ % & & & $ . @ o 3 v p X.7.7.7.7.7.7.7.7.7.",
"7.7.7.7.7.K y b - $ = = = = = $ * = $ 2 v p X.7.7.7.7.7.7.7.7.7.",
"7.7.7.7.7.K y b : & = = = = $ * = = . 2 v p X.7.7.7.7.7.7.7.7.7.",
"7.7.7.7.7.K y b < & = = = $ * = = $ . 2 v p X.7.7.7.7.7.7.7.7.7.",
"7.7.7.7.7.K y b < & = = $ * = = $ $ . 2 v p X.7.7.7.7.7.7.7.7.7.",
"7.7.7.7.7.K y b < * = $ * = = $ $ $ . 2 v p X.7.7.7.7.7.7.7.7.7.",
"7.7.7.7.7.K y b < $ $ & = = $ $ $ $ . 2 v p X.7.7.7.7.7.7.7.7.7.",
"7.7.7.7.7.K y b :   # * % + X O O O   1 v p X.7.7.7.7.7.7.7.7.7.",
"7.7.7.7.7.K y N 9 ; > > : : : : : : - e v p X.7.7.7.7.7.7.7.7.7.",
"7.7.7.7.7.K u p h s s s s s s s s s s d p s | 7.7.7.7.7.7.7.7.7.",
"7.7.7.7.7.L i f p a p p p p p p p p p p p s | 7.7.7.7.7.7.7.7.7.",
"7.7.7.7.7.L 6 5 5 5 5 5 5 5 5 5 5 5 5 5 5 w +.7.7.7.7.7.7.7.7.7.",
"7.7.7.F x x 0 7 7 7 7 7 7 7 7 7 7 7 7 7 6 u c N X.#.7.7.7.7.7.7.",
"7.7.7.A v b n n n n n n n n n n n n n n n b b b G R Y | 7.7.7.7.",
"7.7.7.v q q q w w w w w w w w w w w w w w w q r _ 7.7.J $.7.7.7.",
"7.7.7.D C Z C b b b b b b b b b b b b b b b b n | 7.7.E X.7.7.7.",
"7.7.7.B m v m h h h h h h h h h h h h h h h h h _ 7.7.E X.7.7.7.",
"7.7.7.V g h h h h h h h h h h h h h h h h h h x | 7.7.E X.7.7.7.",
"7.7.7.+.E E E E T E E E E E E E E E E E E T T _ 7.7.7.^ $.7.7.7.",
"7.7.7.7.L j z a z t t t t t t z j z j k j a M X.7.7.A x b / 7.7.",
"7.7.7.N 0 0 0 0 0 0 0 0 0 0 0 0 0 0 0 0 0 0 0 s +.N 0 0 0 u ( 7.",
"7.7.7.M a k k k k k k k k k k k k k k k k k k l ' M l x x l L 7.",
"7.7.7.7.7.7.7.7.7.7.7.7.7.7.7.7.7.7.7.7.7.7.7.7.7.7.7.7.7.7.7.7.",
"7.7.7.7.7.7.7.7.7.7.7.7.7.7.7.7.7.7.7.7.7.7.7.7.7.7.7.7.7.7.7.7.",
"7.7.7.7.7.7.7.7.7.7.7.7.7.7.7.7.7.7.7.7.7.7.7.7.7.7.7.7.7.7.7.7."
};
